<svg xmlns="http://www.w3.org/2000/svg" viewBox="0 0 1274.16 1464.01"><defs><style>.cls-1{fill:#010200;}</style></defs><title>Asset 1</title><g id="Layer_2" data-name="Layer 2"><g id="Trace"><path class="cls-1" d="M637.08,0C646-.12,730.59.09,782.75,70c42.87,57.47,41.81,132.51,13.33,187.33-23.27,44.81-60.29,67.33-76.66,76l.66,54.67,448,4q-.66,58.33-1.33,116.67l-444-.67q6.66,314,13.33,628c1,17.29,5.5,39.74,22,54,46.38,40.07,144.52-21.62,154.67-28,26.55-16.69,76.25-47.93,76.09-89.61-.1-25.28-30.82-65.82-34.76-78.39a14.18,14.18,0,0,1-.66-5.33c.35-5,3.4-8.84,6-11.34a461.18,461.18,0,0,0,102.66-48.66c44.82-28.59,74.69-58.84,114.67-99.34,27.3-27.65,48.66-52,63.33-69.33,0,0,16-4,20,16,26,130.16,8,212,8,212-25.35,100.44-73.83,173.75-94,168.67-7.56-1.91-14.62-15.72-29.33-15.34a32.45,32.45,0,0,0-14,4,29.9,29.9,0,0,0-10,10c-28.26,44.56-70.53,78.55-104,119.34-43.37,52.84-110,77.23-243.33,126-16.32,6-72.92,19-132.57,60.9-1.45,1-2.64,1.86-3.43,2.43"/><path class="cls-1" d="M637.08,0c-8.93-.13-93.51.08-145.66,70-42.88,57.47-41.82,132.51-13.34,187.33,23.27,44.81,60.29,67.33,76.67,76q-.33,27.35-.67,54.67l-448,4q.67,58.33,1.34,116.67l444-.67q-6.67,314-13.34,628c-1,17.29-5.5,39.74-22,54-46.38,40.07-144.52-21.62-154.66-28-26.56-16.69-76.26-47.93-76.1-89.61.1-25.28,30.83-65.82,34.76-78.39a14.45,14.45,0,0,0,.67-5.33c-.35-5-3.41-8.84-6-11.34a461.3,461.3,0,0,1-102.67-48.66c-44.82-28.59-74.69-58.84-114.66-99.34-27.31-27.65-48.67-52-63.34-69.33,0,0-16-4-20,16-26,130.16-8,212-8,212,25.36,100.44,73.84,173.75,94,168.67,7.57-1.91,14.63-15.72,29.34-15.34a32.38,32.38,0,0,1,14,4,30,30,0,0,1,10,10c28.25,44.56,70.52,78.55,104,119.34,43.37,52.84,110,77.23,243.33,126,16.32,6,72.91,19,132.57,60.9,1.45,1,2.64,1.86,3.43,2.43"/></g></g></svg>