<?xml version="1.0" standalone="no"?>
<!DOCTYPE svg PUBLIC "-//W3C//DTD SVG 20010904//EN"
 "http://www.w3.org/TR/2001/REC-SVG-20010904/DTD/svg10.dtd">
<svg version="1.0" xmlns="http://www.w3.org/2000/svg"
 width="640.000000pt" height="1280.000000pt" viewBox="0 0 640.000000 1280.000000"
 preserveAspectRatio="xMidYMid meet">
<g transform="translate(0.000000,1280.000000) scale(0.100000,-0.100000)"
fill="#000000" style="stroke-width:10;stroke-opacity:1;">
<path d="M3096 12554 c-110 -231 -149 -334 -165 -444 -7 -48 -14 -535 -21
-1350 -10 -1283 -22 -2633 -40 -4665 -5 -605 -13 -1470 -16 -1923 -5 -578 -10
-825 -18 -831 -6 -5 -204 -28 -441 -51 -236 -23 -531 -52 -655 -64 l-224 -22
-36 33 c-45 40 -78 53 -136 53 -59 0 -103 -19 -141 -63 -55 -63 -58 -170 -6
-234 79 -99 219 -98 299 2 l29 36 630 -71 c347 -39 675 -75 730 -81 55 -6 106
-16 113 -21 6 -6 12 -32 12 -59 0 -42 -4 -50 -30 -69 -37 -27 -39 -61 -5 -88
14 -11 25 -25 25 -32 0 -7 -11 -21 -25 -32 -14 -11 -25 -30 -25 -43 0 -15 10
-31 25 -41 14 -9 25 -22 25 -29 0 -7 -11 -20 -25 -29 -33 -21 -33 -59 0 -84
14 -11 25 -25 25 -32 0 -7 -11 -21 -25 -32 -33 -25 -33 -63 0 -84 14 -9 25
-22 25 -30 0 -7 -11 -21 -25 -30 -34 -22 -34 -66 0 -88 32 -21 32 -39 0 -60
-33 -21 -33 -59 0 -84 31 -25 31 -39 0 -64 -33 -25 -33 -63 0 -84 32 -21 32
-39 0 -60 -34 -22 -34 -66 0 -88 32 -21 32 -39 0 -60 -33 -21 -33 -59 0 -84
14 -11 25 -25 25 -32 0 -7 -11 -21 -25 -32 -14 -11 -25 -30 -25 -43 0 -15 10
-31 25 -41 32 -21 32 -37 0 -58 -35 -23 -35 -72 0 -88 32 -14 32 -41 0 -62
-33 -22 -33 -60 0 -82 32 -21 32 -39 0 -60 -36 -23 -33 -64 5 -92 27 -20 30
-28 30 -76 0 -53 -1 -54 -73 -127 -96 -96 -121 -155 -121 -284 0 -80 3 -97 30
-155 54 -116 147 -189 287 -226 64 -17 70 -17 134 0 92 24 152 57 207 112 111
111 142 266 84 421 -16 45 -38 74 -94 131 -74 72 -74 73 -74 127 0 48 3 56 30
75 39 28 42 75 5 92 -30 13 -33 43 -5 58 11 6 24 20 30 31 9 17 6 24 -19 48
-38 35 -39 54 -6 69 35 16 35 65 0 88 -30 20 -32 40 -5 54 11 6 24 19 30 31 9
16 6 25 -20 50 -16 17 -30 34 -30 39 0 5 14 22 30 39 26 25 29 34 20 50 -6 12
-19 25 -30 31 -27 15 -25 36 5 56 34 22 34 66 0 88 -30 20 -32 41 -5 56 11 6
24 19 30 31 9 16 6 25 -20 50 -16 17 -30 34 -30 39 0 5 14 22 30 39 26 25 29
34 20 50 -6 12 -19 25 -30 31 -27 15 -25 36 5 56 34 22 34 66 0 88 -30 20 -32
41 -5 56 11 6 24 19 30 31 9 16 6 25 -20 50 -36 37 -37 46 -5 71 33 25 33 63
0 84 -32 21 -32 37 0 58 15 10 25 26 25 41 0 24 -23 55 -41 55 -19 0 -8 29 21
59 35 34 31 55 -15 85 -21 14 -25 24 -25 66 0 43 3 52 23 60 12 4 346 45 742
89 l720 81 29 -35 c80 -100 220 -101 299 -2 52 64 49 171 -6 234 -38 44 -82
63 -141 63 -58 0 -91 -13 -136 -53 l-36 -33 -224 22 c-124 12 -418 41 -655 64
-236 23 -435 46 -441 51 -8 6 -13 253 -18 831 -3 453 -11 1318 -16 1923 -19
2144 -30 3406 -40 4665 -7 812 -14 1302 -21 1350 -6 41 -26 116 -43 165 -32
89 -216 484 -226 484 -3 0 -49 -92 -104 -205z"/>
</g>
</svg>
